<svg width="0" height="0" class="hidden">
  <symbol id="account_details" xmlns="http://www.w3.org/2000/svg" fill="none" viewBox="0 0 24 24" height="100%" width="100%">
    <path fill="currentColor" d="M14 12.5C14 13.6046 13.1046 14.5 12 14.5C10.8954 14.5 10 13.6046 10 12.5C10 11.3954 10.8954 10.5 12 10.5C13.1046 10.5 14 11.3954 14 12.5Z"></path><path fill="currentColor" d="M12 17.25C11.7265 17.25 11.3186 17.3871 10.6823 17.9811C10.2786 18.3579 9.64578 18.3361 9.26894 17.9323C8.89211 17.5286 8.91393 16.8958 9.31768 16.5189C10.1099 15.7795 10.9878 15.25 12 15.25C13.0122 15.25 13.8901 15.7795 14.6823 16.5189C15.0861 16.8958 15.1079 17.5286 14.7311 17.9323C14.3542 18.3361 13.7214 18.3579 13.3177 17.9811C12.6814 17.3871 12.2735 17.25 12 17.25Z" clip-rule="evenodd" fill-rule="evenodd"></path><path fill="currentColor" d="M4 5C4 3.34315 5.34315 2 7 2H17C18.6569 2 20 3.34315 20 5V19C20 20.6569 18.6569 22 17 22H7C5.34315 22 4 20.6569 4 19V5ZM7 4C6.44772 4 6 4.44772 6 5V19C6 19.5523 6.44772 20 7 20H17C17.5523 20 18 19.5523 18 19V5C18 4.44772 17.5523 4 17 4H7Z" clip-rule="evenodd" fill-rule="evenodd"></path><path fill="currentColor" d="M9 7C9 6.44772 9.44772 6 10 6H14C14.5523 6 15 6.44772 15 7C15 7.55228 14.5523 8 14 8H10C9.44772 8 9 7.55228 9 7Z" clip-rule="evenodd" fill-rule="evenodd">
    </path>
  </symbol>
  <symbol id="bookmarks" xmlns="http://www.w3.org/2000/svg" width="1em" height="1em" viewBox="0 0 512 512" class="w-6 h-6 m:w-4 m:h-4 mr-4 shrink-0" stroke-width="0" fill="none" stroke="#03314b">
    <path fill="none" stroke-linejoin="round" stroke-width="32" d="M128 80V64a48.14 48.14 0 0148-48h224a48.14 48.14 0 0148 48v368l-80-64">
   </path>
    <path fill="none" d="M320 96H112a48.14 48.14 0 00-48 48v352l152-128 152 128V144a48.14 48.14 0 00-48-48z" stroke-width="32" stroke-linejoin="round">
    </path>
  </symbol>
  <symbol id="collections" xmlns="http://www.w3.org/2000/svg" fill="#03314b" viewBox="0 0 32 32" height="16" width="16">
    <path fill="#03314b" d="M24.7994 11.2C26.9202 11.2 28.6555 12.8505 28.7909 14.937L28.7994 15.2V24.7994C28.7994 26.9202 27.149 28.6555 25.0625 28.7909L24.7994 28.7994H15.2C13.0792 28.7994 11.344 27.149 11.2085 25.0625L11.2 24.7994V15.2C11.2 13.0792 12.8505 11.344 14.937 11.2085L15.2 11.2H24.7994ZM19.9997 14.4C19.607 14.4 19.2804 14.683 19.2126 15.0562L19.1997 15.2L19.1984 19.2H15.2L15.0562 19.2129C14.683 19.2806 14.4 19.6073 14.4 20C14.4 20.3927 14.683 20.7194 15.0562 20.7871L15.2 20.8H19.1984L19.1997 24.8L19.2126 24.9438C19.2804 25.317 19.607 25.6 19.9997 25.6C20.3925 25.6 20.7191 25.317 20.7868 24.9438L20.7997 24.8L20.7984 20.8H24.8L24.9438 20.7871C25.317 20.7194 25.6 20.3927 25.6 20C25.6 19.6073 25.317 19.2806 24.9438 19.2129L24.8 19.2H20.7984L20.7997 15.2L20.7868 15.0562C20.7191 14.683 20.3925 14.4 19.9997 14.4ZM20.259 5.91211L20.3353 6.16395L21.2558 9.59982L14.4 9.60003C11.8437 9.60003 9.75417 11.5983 9.60818 14.118L9.60003 14.4L9.60047 22.9562C7.95734 22.9228 6.45777 21.8712 5.90353 20.2642L5.82005 19.9914L3.33553 10.719C2.78664 8.67051 3.93173 6.56719 5.91211 5.89634L6.16395 5.82005L15.4363 3.33553C17.3994 2.80951 19.4129 3.83924 20.1678 5.66898L20.259 5.91211Z">
    </path>
  </symbol>
  <symbol id="library" xmlns="http://www.w3.org/2000/svg" width="100%" height="100%" viewBox="0 0 512 512" fill="none">
    <path fill="currentColor" d="M512 281.6H460.8V256C460.8 143 369 51.2 256 51.2S51.2 143 51.2 256v25.6H0V256C0 114.9 114.9 0 256 0S512 114.9 512 256v25.6zm-102.4 0H358.4V256c0-56.3-46.1-102.4-102.4-102.4s-102.4 46.1-102.4 102.4v25.6H102.4V256c0-84.8 68.8-153.6 153.6-153.6s153.6 68.8 153.6 153.6v25.6zm-51.2 51.2c-41.9 0-79 20.5-102.4 51.8c-23.4-31.4-60.5-51.8-102.4-51.8H0V384H153.6c42.2 0 76.8 34.6 76.8 76.8v25.6h51.2V460.8c0-42.2 34.6-76.8 76.8-76.8H512V332.8H358.4zM256 307.2a51.2 51.2 0 1 0 0-102.4 51.2 51.2 0 1 0 0 102.4z">
    </path>
  </symbol>
  <symbol id="notifications" xmlns="http://www.w3.org/2000/svg" fill="currentColor" height="100%" width="100%" viewBox="0 0 24 24">
    <path d="M12 22c1.1 0 2-.9 2-2h-4c0 1.1.9 2 2 2zm6-6v-5c0-3.07-1.63-5.64-4.5-6.32V4c0-.83-.67-1.5-1.5-1.5s-1.5.67-1.5 1.5v.68C7.64 5.36 6 7.92 6 11v5l-2 2v1h16v-1l-2-2zm-2 1H8v-6c0-2.48 1.51-4.5 4-4.5s4 2.02 4 4.5v6z">
    </path>
  </symbol>
  <symbol id="playlist" xmlns="http://www.w3.org/2000/svg" width="100%" height="100%" viewBox="0 0 21 17">
    <g stroke="none" stroke-width="1" fill="none" fill-rule="evenodd">
      <g id="feature-outline-icon" transform="translate(0.865723, 0.665728)" fill="#757575" fill-rule="nonzero">
        <path fill="currentColor" d="M6.13427734,12.6369485 L18.1342773,12.6369485 C18.6865621,12.6369485 19.1342773,13.0846638 19.1342773,13.6369485 C19.1342773,14.1892333 18.6865621,14.6369485 18.1342773,14.6369485 L6.13427734,14.6369485 C5.58199259,14.6369485 5.13427734,14.1892333 5.13427734,13.6369485 C5.13427734,13.0846638 5.58199259,12.6369485 6.13427734,12.6369485 Z M6.13427734,6.63694853 L18.1342773,6.63694853 C18.6865621,6.63694853 19.1342773,7.08466378 19.1342773,7.63694853 C19.1342773,8.18923328 18.6865621,8.63694853 18.1342773,8.63694853 L6.13427734,8.63694853 C5.58199259,8.63694853 5.13427734,8.18923328 5.13427734,7.63694853 C5.13427734,7.08466378 5.58199259,6.63694853 6.13427734,6.63694853 Z M6.13427734,0.636948529 L18.1342773,0.636948529 C18.6865621,0.636948529 19.1342773,1.08466378 19.1342773,1.63694853 C19.1342773,2.18923328 18.6865621,2.63694853 18.1342773,2.63694853 L6.13427734,2.63694853 C5.58199259,2.63694853 5.13427734,2.18923328 5.13427734,1.63694853 C5.13427734,1.08466378 5.58199259,0.636948529 6.13427734,0.636948529 Z M0.909179688,15.2121438 L2.69042969,14.163804 C2.80794271,14.0957701 2.88680013,13.998358 2.92700195,13.8715677 C2.96720378,13.7447773 2.96720378,13.6179869 2.92700195,13.4911966 C2.88680013,13.3644062 2.80794271,13.2669941 2.69042969,13.1989602 L0.909179688,12.1320657 C0.686523438,11.995998 0.479329427,11.9650735 0.287597656,12.0392923 C0.0958658854,12.113511 0,12.2805032 0,12.5402688 L0,14.8039407 C0,15.0513366 0.0974121094,15.2136901 0.292236328,15.2910013 C0.487060547,15.3683125 0.692708333,15.3420267 0.909179688,15.2121438 Z M0.909179688,9.21214384 L2.69042969,8.163804 C2.80794271,8.09577014 2.88680013,7.99835803 2.92700195,7.87156767 C2.96720378,7.74477731 2.96720378,7.61798694 2.92700195,7.49119658 C2.88680013,7.36440621 2.80794271,7.2669941 2.69042969,7.19896025 L0.909179688,6.13206572 C0.686523438,5.99599801 0.479329427,5.96507353 0.287597656,6.03929228 C0.0958658854,6.11351103 0,6.28050322 0,6.54026884 L0,8.80394072 C0,9.05133655 0.0974121094,9.21369007 0.292236328,9.29100126 C0.487060547,9.36831246 0.692708333,9.34202665 0.909179688,9.21214384 Z M0.909179688,3.21214384 L2.69042969,2.163804 C2.80794271,2.09577014 2.88680013,1.99835803 2.92700195,1.87156767 C2.96720378,1.74477731 2.96720378,1.61798694 2.92700195,1.49119658 C2.88680013,1.36440621 2.80794271,1.2669941 2.69042969,1.19896025 L0.909179688,0.132065717 C0.686523438,-0.00400199142 0.479329427,-0.0349264706 0.287597656,0.0392922794 C0.0958658854,0.113511029 0,0.280503217 0,0.540268842 L0,2.80394072 C0,3.05133655 0.0974121094,3.21369007 0.292236328,3.29100126 C0.487060547,3.36831246 0.692708333,3.34202665 0.909179688,3.21214384 Z">
        </path>
      </g>
    </g>
  </symbol>
  <symbol id="preferences" xmlns="http://www.w3.org/2000/svg" fill="none" viewBox="0 0 24 24" height="100%" width="100%">
    <path fill="currentColor" d="M12 4C10.3431 4 9 5.34315 9 7C9 8.65685 10.3431 10 12 10C13.6569 10 15 8.65685 15 7C15 5.34315 13.6569 4 12 4ZM7 7C7 4.23858 9.23858 2 12 2C14.7614 2 17 4.23858 17 7C17 9.76142 14.7614 12 12 12C9.23858 12 7 9.76142 7 7ZM19.0277 15.6255C18.6859 15.5646 18.1941 15.6534 17.682 16.1829C17.4936 16.3777 17.2342 16.4877 16.9632 16.4877C16.6922 16.4877 16.4328 16.3777 16.2444 16.1829C15.7322 15.6534 15.2405 15.5646 14.8987 15.6255C14.5381 15.6897 14.2179 15.9384 14.0623 16.3275C13.8048 16.9713 13.9014 18.662 16.9632 20.4617C20.0249 18.662 20.1216 16.9713 19.864 16.3275C19.7084 15.9384 19.3882 15.6897 19.0277 15.6255ZM21.721 15.5847C22.5748 17.7191 21.2654 20.429 17.437 22.4892C17.1412 22.6484 16.7852 22.6484 16.4893 22.4892C12.6609 20.4291 11.3516 17.7191 12.2053 15.5847C12.6117 14.5689 13.4917 13.8446 14.5481 13.6565C15.3567 13.5125 16.2032 13.6915 16.9632 14.1924C17.7232 13.6915 18.5697 13.5125 19.3783 13.6565C20.4347 13.8446 21.3147 14.5689 21.721 15.5847ZM9.92597 14.2049C10.1345 14.7163 9.889 15.2999 9.3776 15.5084C7.06131 16.453 5.5 18.5813 5.5 20.9999C5.5 21.5522 5.05228 21.9999 4.5 21.9999C3.94772 21.9999 3.5 21.5522 3.5 20.9999C3.5 17.6777 5.641 14.8723 8.6224 13.6565C9.1338 13.448 9.71743 13.6935 9.92597 14.2049Z" clip-rule="evenodd" fill-rule="evenodd">
    </path>
  </symbol>
  <symbol id="setting_s" xmlns="http://www.w3.org/2000/svg" viewBox="0 0 24 24" height="100%" width="100%" fill="none" stroke="currentColor">
    <path fill="currentColor" d="M15.152 24a1.399 1.399 0 01-1.29-.86l-.797-1.923a1.125 1.125 0 00-1.068-.714c-.483 0-.884.268-1.07.714l-.796 1.923c-.141.343-.41.61-.755.755a1.39 1.39 0 01-1.066 0l-2.117-.877a1.399 1.399 0 01-.755-1.822l.796-1.922a1.123 1.123 0 00-.25-1.259 1.128 1.128 0 00-1.258-.251l-1.922.796a1.39 1.39 0 01-1.067 0 1.381 1.381 0 01-.755-.755l-.877-2.117a1.397 1.397 0 01.756-1.822l1.922-.796c.446-.186.714-.584.714-1.069 0-.483-.268-.883-.714-1.069L.86 10.136a1.389 1.389 0 01-.756-.755 1.39 1.39 0 010-1.067l.877-2.117c.142-.343.41-.61.755-.755a1.39 1.39 0 011.067 0l1.922.797c.446.185.918.091 1.259-.25.34-.34.434-.812.251-1.259L5.44 2.808A1.397 1.397 0 016.195.986L8.312.11a1.394 1.394 0 011.822.755l.796 1.922c.186.447.584.714 1.069.714.483 0 .883-.267 1.069-.714l.796-1.922c.142-.343.41-.611.755-.755a1.39 1.39 0 011.067 0l2.119.874c.343.142.611.41.755.755a1.39 1.39 0 010 1.067l-.796 1.922c-.186.446-.092.918.25 1.259.34.34.812.435 1.258.252l1.922-.797a1.394 1.394 0 011.822.755l.877 2.117a1.394 1.394 0 01-.756 1.822l-1.922.796a1.125 1.125 0 00-.714 1.07c0 .482.268.882.714 1.068l1.922.796c.343.142.611.41.755.755a1.39 1.39 0 010 1.067l-.876 2.117a1.399 1.399 0 01-1.822.755l-1.922-.796a1.123 1.123 0 00-1.259.25 1.128 1.128 0 00-.252 1.258l.797 1.922a1.394 1.394 0 01-.755 1.822l-2.117.876a1.386 1.386 0 01-.534.108zM12 19.13c1.043 0 1.938.6 2.336 1.56l.797 1.923c.005.012.018.016.027.012l2.117-.877c.01-.005.016-.018.012-.027l-.797-1.923a2.49 2.49 0 01.55-2.755 2.486 2.486 0 012.755-.547l1.922.796c.012.005.023 0 .028-.011l.876-2.117c.005-.01-.002-.025-.011-.027l-1.922-.797a2.49 2.49 0 01-1.561-2.337 2.49 2.49 0 011.56-2.336l1.923-.797c.01-.004.016-.018.011-.027l-.876-2.117c-.005-.011-.016-.016-.028-.011l-1.922.796a2.49 2.49 0 01-2.755-.55 2.486 2.486 0 01-.547-2.755l.796-1.922c.005-.01-.002-.025-.011-.027l-2.117-.877c-.01-.005-.026.002-.028.011l-.796 1.923A2.487 2.487 0 0112 4.874a2.49 2.49 0 01-2.336-1.56L8.868 1.39c-.004-.009-.018-.016-.027-.011l-2.117.877c-.012.004-.016.018-.012.027l.797 1.922a2.49 2.49 0 01-.55 2.756 2.486 2.486 0 01-2.755.547l-1.922-.797c-.012-.004-.023 0-.028.012L1.378 8.84c-.005.009.002.025.011.027l1.923.797A2.49 2.49 0 014.872 12a2.49 2.49 0 01-1.56 2.337l-1.923.796c-.011.005-.016.018-.011.028l.876 2.117c.005.009.019.016.028.011l1.922-.796a2.49 2.49 0 012.756.549c.736.737.947 1.794.546 2.755l-.796 1.923c-.005.011 0 .023.012.027l2.116.877c.01.004.026-.003.028-.012l.796-1.922A2.487 2.487 0 0112 19.13z">
    </path>
    <path fill="currentColor" d="M11.999 16.848c-.63 0-1.257-.123-1.856-.37a4.816 4.816 0 01-2.623-2.623 4.826 4.826 0 010-3.71 4.816 4.816 0 012.623-2.623 4.826 4.826 0 013.71 0 4.824 4.824 0 012.622 2.623 4.826 4.826 0 010 3.71 4.809 4.809 0 01-2.622 2.622 4.837 4.837 0 01-1.854.371zm0-8.323c-.451 0-.9.089-1.33.265a3.446 3.446 0 00-1.879 1.88 3.45 3.45 0 000 2.656 3.453 3.453 0 001.88 1.879 3.45 3.45 0 002.656 0 3.453 3.453 0 001.88-1.879 3.45 3.45 0 000-2.657 3.446 3.446 0 00-1.88-1.879A3.47 3.47 0 0012 8.525z">
    </path>
  </symbol>
  <symbol id="sidebar-collapse" fill="none" xmlns="http://www.w3.org/2000/svg" viewBox="0 0 448 512">
    <path fill="currentColor" d="M0 424c0 13.3 10.7 24 24 24s24-10.7 24-24L48 88c0-13.3-10.7-24-24-24S0 74.7 0 88L0 424zM135.6 238.5c-4.8 4.5-7.6 10.9-7.6 17.5s2.7 12.9 7.6 17.5l136 128c9.7 9.1 24.8 8.6 33.9-1s8.6-24.8-1-33.9L212.5 280l83.5 0 128 0c13.3 0 24-10.7 24-24s-10.7-24-24-24l-128 0-83.5 0 91.9-86.5c9.7-9.1 10.1-24.3 1-33.9s-24.3-10.1-33.9-1l-136 128z">
    </path>
  </symbol>
  <symbol id="sidebar-expand" viewBox="0 0 448 512" xmlns="http://www.w3.org/2000/svg"  transform="matrix(-1,1.2246467991473532e-16,-1.2246467991473532e-16,-1,0,0)" version="1.1" xmlns:xlink="http://www.w3.org/1999/xlink">
    <path fill="currentColor" d="M448 88c0-13.3-10.7-24-24-24s-24 10.7-24 24v336c0 13.3 10.7 24 24 24s24-10.7 24-24V88zm-135.6 185.5c4.8-4.5 7.6-10.9 7.6-17.5s-2.7-12.9-7.6-17.5l-136-128c-9.7-9.1-24.8-8.6-33.9 1s-8.6 24.8 1 33.9l92 86.6H24c-13.3 0-24 10.7-24 24s10.7 24 24 24h211.5l-91.9 86.5c-9.7 9.1-10.1 24.3-1 33.9s24.3 10.1 33.9 1l136-128z">
    </path>
  </symbol>
  <symbol id="teams" xmlns="http://www.w3.org/2000/svg" width="100%" height="100%" viewBox="0 0 512 512" stroke-width="0" fill="currentColor" stroke="currentColor">
    <path d="M256 464c-114.69 0-208-93.31-208-208S141.31 48 256 48s208 93.31 208 208-93.31 208-208 208zm0-384c-97 0-176 79-176 176s79 176 176 176 176-78.95 176-176S353.05 80 256 80z"></path><path d="M323.67 292c-17.4 0-34.21-7.72-47.34-21.73a83.76 83.76 0 01-22-51.32c-1.47-20.7 4.88-39.75 17.88-53.62S303.38 144 323.67 144c20.14 0 38.37 7.62 51.33 21.46s19.47 33 18 53.51a84 84 0 01-22 51.3C357.86 284.28 341.06 292 323.67 292zm55.81-74zm-215.66 77.36c-29.76 0-55.93-27.51-58.33-61.33-1.23-17.32 4.15-33.33 15.17-45.08s26.22-18 43.15-18 32.12 6.44 43.07 18.14 16.5 27.82 15.25 45c-2.44 33.77-28.6 61.27-58.31 61.27zm256.55 59.92c-1.59-4.7-5.46-9.71-13.22-14.46-23.46-14.33-52.32-21.91-83.48-21.91-30.57 0-60.23 7.9-83.53 22.25-26.25 16.17-43.89 39.75-51 68.18-1.68 6.69-4.13 19.14-1.51 26.11a192.18 192.18 0 00232.75-80.17zm-256.74 46.09c7.07-28.21 22.12-51.73 45.47-70.75a8 8 0 00-2.59-13.77c-12-3.83-25.7-5.88-42.69-5.88-23.82 0-49.11 6.45-68.14 18.17-5.4 3.33-10.7 4.61-14.78 5.75a192.84 192.84 0 0077.78 86.64l1.79-.14a102.82 102.82 0 013.16-20.02z">
    </path>
  </symbol>
</svg>